<svg width="64" height="64" viewBox="0 0 64 64" fill="none" xmlns="http://www.w3.org/2000/svg">
<path d="M26 36L36 26L54 44L56 56L43 53L26 36Z" fill="#34CB79"/>
<path fill-rule="evenodd" clip-rule="evenodd" d="M0.61857 12.5743C0.222335 12.9707 -0.000171161 13.5084 9.87884e-08 14.0689C0.000171358 14.6295 0.223007 15.167 0.619484 15.5632C1.01596 15.9594 1.5536 16.1819 2.11414 16.1818C2.67467 16.1816 3.21217 15.9588 3.60841 15.5623L5.10241 14.0683L12.5724 21.5383L6.59642 27.5162C6.39461 27.7111 6.23365 27.9443 6.12292 28.2021C6.01219 28.4599 5.95391 28.7372 5.95148 29.0177C5.94906 29.2983 6.00253 29.5766 6.10878 29.8362C6.21503 30.0959 6.37193 30.3319 6.57033 30.5303C6.76874 30.7287 7.00466 30.8856 7.26435 30.9918C7.52404 31.0981 7.80228 31.1515 8.08285 31.1491C8.36342 31.1467 8.6407 31.0884 8.89851 30.9777C9.15632 30.8669 9.3895 30.706 9.58443 30.5042L12.5724 27.5162L37.9779 52.9216C39.4317 54.3755 41.2779 55.3738 43.2905 55.7942C45.3031 56.2146 47.3947 56.0389 49.3089 55.2886L51.4276 57.4054C51.952 57.9301 52.6054 58.3075 53.3219 58.4995C54.0385 58.6916 54.793 58.6915 55.5096 58.4994L60.3916 63.3814C60.5878 63.5777 60.8207 63.7335 61.0771 63.8398C61.3335 63.9461 61.6083 64.0008 61.8859 64.0009C62.1634 64.001 62.4383 63.9464 62.6947 63.8403C62.9512 63.7341 63.1842 63.5785 63.3805 63.3823C63.5768 63.1861 63.7326 62.9532 63.8389 62.6968C63.9452 62.4404 63.9999 62.1656 64 61.8881C64.0001 61.6105 63.9455 61.3357 63.8394 61.0792C63.7332 60.8228 63.5776 60.5897 63.3814 60.3934L58.4976 55.5096C58.6895 54.7929 58.6892 54.0383 58.4969 53.3217C58.3045 52.6051 57.9268 51.9518 57.4018 51.4276L55.2868 49.3107C56.0377 47.3964 56.2139 45.3046 55.7938 43.2917C55.3737 41.2787 54.3755 39.432 52.9216 37.9779L27.5162 12.5724L30.506 9.58443C30.7023 9.38812 30.858 9.15506 30.9643 8.89856C31.0705 8.64206 31.1252 8.36714 31.1252 8.08951C31.1252 7.81188 31.0705 7.53697 30.9643 7.28047C30.858 7.02397 30.7023 6.79091 30.506 6.59459C30.3097 6.39828 30.0766 6.24255 29.8201 6.13631C29.5636 6.03006 29.2887 5.97538 29.0111 5.97538C28.7334 5.97538 28.4585 6.03006 28.202 6.13631C27.9455 6.24255 27.7125 6.39828 27.5162 6.59459L21.5401 12.5724L14.0701 5.10241L15.5623 3.60841C15.7586 3.41221 15.9143 3.17927 16.0206 2.92288C16.1269 2.6665 16.1817 2.39168 16.1818 2.11414C16.1819 1.83659 16.1273 1.56174 16.0211 1.30529C15.915 1.04884 15.7594 0.815799 15.5632 0.619484C15.367 0.423168 15.1341 0.267418 14.8777 0.161127C14.6213 0.0548362 14.3465 8.48931e-05 14.0689 9.86442e-08C13.7914 -8.46958e-05 13.5165 0.0544982 13.2601 0.160633C13.0036 0.266767 12.7706 0.422375 12.5743 0.61857L0.61857 12.5743V12.5743ZM18.9558 15.155L11.4857 7.68496L7.68679 11.4839L15.1568 18.9539L18.9558 15.155V15.155ZM24.9336 15.155L15.155 24.9336L23.2022 32.9808L32.9808 23.2022L24.9336 15.1568V15.155ZM26.192 35.9706L30.674 40.4526L34.0693 37.0573C34.2656 36.8611 34.4987 36.7055 34.7551 36.5994C35.0116 36.4933 35.2864 36.4387 35.564 36.4388C35.8415 36.4389 36.1163 36.4936 36.3727 36.5999C36.6291 36.7062 36.8621 36.8619 37.0583 37.0583C37.2545 37.2546 37.4101 37.4876 37.5162 37.7441C37.6223 38.0005 37.6769 38.2754 37.6768 38.5529C37.6767 38.8305 37.622 39.1053 37.5157 39.3617C37.4094 39.618 37.2537 39.851 37.0573 40.0472L33.6639 43.4425L36.6519 46.4305L40.0454 43.0334C40.2417 42.837 40.4747 42.6813 40.7312 42.5751C40.9877 42.4688 41.2626 42.4141 41.5403 42.4141C41.8179 42.4141 42.0928 42.4688 42.3493 42.5751C42.6058 42.6813 42.8389 42.837 43.0352 43.0334C43.2315 43.2297 43.3872 43.4627 43.4935 43.7192C43.5997 43.9757 43.6544 44.2507 43.6544 44.5283C43.6544 44.8059 43.5997 45.0808 43.4935 45.3373C43.3872 45.5938 43.2315 45.8269 43.0352 46.0232L39.6399 49.4185L40.5604 50.339C41.5122 51.2911 42.7212 51.9446 44.039 52.2194C45.3569 52.4942 46.7263 52.3783 47.9793 51.886L51.886 47.9793C52.3781 46.7262 52.4936 45.3566 52.2185 44.0388C51.9434 42.7209 51.2895 41.512 50.3372 40.5604L35.9688 26.192L26.192 35.9706V35.9706ZM54.8703 54.0685C54.8553 54.048 54.8388 54.0284 54.821 54.0101L53.3161 52.5051C53.0599 52.7898 52.7886 53.0605 52.5033 53.3161L54.0083 54.8229C54.0265 54.8408 54.046 54.8573 54.0667 54.8722C54.2562 54.5359 54.5341 54.258 54.8703 54.0685V54.0685Z" fill="#322153"/>
</svg>
