<svg width="32" height="32" viewBox="0 0 32 32" fill="none" xmlns="http://www.w3.org/2000/svg">
<path fill-rule="evenodd" clip-rule="evenodd" d="M0.309285 6.28714C0.111168 6.48537 -8.55803e-05 6.7542 4.93942e-08 7.03446C8.56791e-05 7.31473 0.111503 7.58348 0.309742 7.7816C0.50798 7.97971 0.776802 8.09097 1.05707 8.09088C1.33733 8.0908 1.60609 7.97938 1.8042 7.78114L2.55121 7.03414L6.28622 10.7692L3.29821 13.7581C3.19731 13.8555 3.11683 13.9721 3.06146 14.101C3.0061 14.2299 2.97696 14.3686 2.97574 14.5089C2.97453 14.6492 3.00126 14.7883 3.05439 14.9181C3.10752 15.048 3.18597 15.1659 3.28517 15.2651C3.38437 15.3643 3.50233 15.4428 3.63217 15.4959C3.76202 15.549 3.90114 15.5758 4.04143 15.5746C4.18171 15.5733 4.32035 15.5442 4.44926 15.4888C4.57816 15.4335 4.69475 15.353 4.79222 15.2521L6.28622 13.7581L18.9889 26.4608C19.7158 27.1877 20.639 27.6869 21.6453 27.8971C22.6516 28.1073 23.6973 28.0195 24.6545 27.6443L25.7138 28.7027C25.976 28.9651 26.3027 29.1537 26.661 29.2498C27.0193 29.3458 27.3965 29.3458 27.7548 29.2497L30.1958 31.6907C30.2939 31.7889 30.4104 31.8667 30.5386 31.9199C30.6668 31.973 30.8042 32.0004 30.9429 32.0005C31.0817 32.0005 31.2191 31.9732 31.3474 31.9201C31.4756 31.8671 31.5921 31.7893 31.6903 31.6912C31.7884 31.5931 31.8663 31.4766 31.9194 31.3484C31.9726 31.2202 32 31.0828 32 30.944C32 30.8053 31.9728 30.6678 31.9197 30.5396C31.8666 30.4114 31.7888 30.2949 31.6907 30.1967L29.2488 27.7548C29.3447 27.3964 29.3446 27.0191 29.2484 26.6608C29.1523 26.3025 28.9634 25.9759 28.7009 25.7138L27.6434 24.6554C28.0188 23.6982 28.1069 22.6523 27.8969 21.6458C27.6868 20.6394 27.1878 19.716 26.4608 18.9889L13.7581 6.28622L15.253 4.79222C15.3512 4.69406 15.429 4.57753 15.4821 4.44928C15.5353 4.32103 15.5626 4.18357 15.5626 4.04476C15.5626 3.90594 15.5353 3.76848 15.4821 3.64023C15.429 3.51199 15.3512 3.39545 15.253 3.2973C15.1548 3.19914 15.0383 3.12128 14.9101 3.06815C14.7818 3.01503 14.6444 2.98769 14.5055 2.98769C14.3667 2.98769 14.2293 3.01503 14.101 3.06815C13.9728 3.12128 13.8562 3.19914 13.7581 3.2973L10.7701 6.28622L7.03505 2.55121L7.78114 1.8042C7.8793 1.70611 7.95717 1.58964 8.01032 1.46144C8.06346 1.33325 8.09084 1.19584 8.09088 1.05707C8.09093 0.918294 8.06363 0.780871 8.01057 0.652645C7.9575 0.524418 7.8797 0.4079 7.7816 0.309742C7.6835 0.211584 7.56703 0.133709 7.43884 0.0805637C7.31064 0.0274181 7.17324 4.24465e-05 7.03446 4.93221e-08C6.89569 -4.23479e-05 6.75826 0.0272491 6.63004 0.0803163C6.50181 0.133384 6.38529 0.211187 6.28714 0.309285L0.309285 6.28714V6.28714ZM9.47788 7.5775L5.74286 3.84248L3.84339 5.74195L7.57841 9.47697L9.47788 7.5775V7.5775ZM12.4668 7.5775L7.5775 12.4668L11.6011 16.4904L16.4904 11.6011L12.4668 7.57841V7.5775ZM13.096 17.9853L15.337 20.2263L17.0347 18.5287C17.1328 18.4306 17.2493 18.3528 17.3776 18.2997C17.5058 18.2466 17.6432 18.2193 17.782 18.2194C17.9208 18.2194 18.0582 18.2468 18.1864 18.2999C18.3146 18.3531 18.431 18.431 18.5291 18.5291C18.6272 18.6273 18.705 18.7438 18.7581 18.872C18.8112 19.0003 18.8385 19.1377 18.8384 19.2765C18.8384 19.4152 18.811 19.5526 18.7578 19.6808C18.7047 19.809 18.6268 19.9255 18.5287 20.0236L16.8319 21.7212L18.3259 23.2152L20.0227 21.5167C20.1208 21.4185 20.2374 21.3407 20.3656 21.2875C20.4939 21.2344 20.6313 21.2071 20.7701 21.2071C20.909 21.2071 21.0464 21.2344 21.1747 21.2875C21.3029 21.3407 21.4194 21.4185 21.5176 21.5167C21.6158 21.6148 21.6936 21.7314 21.7467 21.8596C21.7999 21.9879 21.8272 22.1253 21.8272 22.2641C21.8272 22.403 21.7999 22.5404 21.7467 22.6687C21.6936 22.7969 21.6158 22.9134 21.5176 23.0116L19.8199 24.7092L20.2802 25.1695C20.7561 25.6455 21.3606 25.9723 22.0195 26.1097C22.6785 26.2471 23.3632 26.1891 23.9896 25.943L25.943 23.9896C26.189 23.3631 26.2468 22.6783 26.1093 22.0194C25.9717 21.3604 25.6448 20.756 25.1686 20.2802L17.9844 13.096L13.096 17.9853V17.9853ZM27.4352 27.0343C27.4276 27.024 27.4194 27.0142 27.4105 27.0051L26.658 26.2526C26.5299 26.3949 26.3943 26.5303 26.2517 26.658L27.0041 27.4114C27.0132 27.4204 27.023 27.4286 27.0334 27.4361C27.1281 27.268 27.2671 27.129 27.4352 27.0343V27.0343Z" fill="#322153"/>
</svg>
