<svg width="32" height="32" viewBox="0 0 32 32" fill="none" xmlns="http://www.w3.org/2000/svg">
<mask id="path-1-inside-1_11067_191" fill="white">
<path d="M29.736 2.26689C29.2539 1.78495 28.605 1.50681 27.9235 1.49006C27.242 1.47331 26.5802 1.71922 26.075 2.17689L20.785 6.96789L17.935 9.72289L21.158 4.76089C22.041 3.40089 21.115 1.59589 19.495 1.51889C19.0557 1.49808 18.6209 1.61573 18.252 1.85526C17.8831 2.09478 17.5987 2.44409 17.439 2.85389L14.237 11.0599C13.2217 10.8908 12.1792 11.0749 11.2832 11.5814C10.3873 12.0879 9.692 12.8862 9.31337 13.8433C8.93473 14.8004 8.89562 15.8583 9.20254 16.8407C9.50946 17.8231 10.1439 18.6706 11 19.2419V23.4999C11 25.7369 10.08 27.0869 8.958 27.8939C7.81 28.7199 6.42 28.9999 5.5 28.9999C5.36739 28.9999 5.24021 29.0526 5.14645 29.1463C5.05268 29.2401 5 29.3673 5 29.4999C5 29.6325 5.05268 29.7597 5.14645 29.8534C5.24021 29.9472 5.36739 29.9999 5.5 29.9999C6.58 29.9999 8.189 29.6799 9.542 28.7059C10.921 27.7129 12 26.0629 12 23.4999V19.7439C12.318 19.8569 12.653 19.9339 13 19.9729V29.4999C13 29.6325 13.0527 29.7597 13.1464 29.8534C13.2402 29.9472 13.3674 29.9999 13.5 29.9999C13.6326 29.9999 13.7598 29.9472 13.8536 29.8534C13.9473 29.7597 14 29.6325 14 29.4999V19.9729C14.3411 19.9349 14.6766 19.8577 15 19.7429V23.4999C15 25.8779 16.092 27.4779 17.452 28.4889C18.792 29.4849 20.386 29.9089 21.458 29.9989C21.5902 30.01 21.7214 29.9682 21.8228 29.8826C21.9242 29.797 21.9874 29.6746 21.9985 29.5424C22.0096 29.4102 21.9678 29.279 21.8822 29.1776C21.7966 29.0762 21.6742 29.013 21.542 29.0019C20.614 28.9239 19.208 28.5489 18.048 27.6859C16.908 26.8399 16 25.5219 16 23.4999V19.2419C16.6156 18.831 17.1203 18.2744 17.4692 17.6217C17.8181 16.9689 18.0004 16.2401 18 15.4999C18 14.7949 17.838 14.1279 17.55 13.5349L23.466 10.0199L23.476 10.0139L29.265 6.39789C29.6037 6.18609 29.8903 5.9006 30.1034 5.56269C30.3165 5.22478 30.4507 4.84315 30.4958 4.44622C30.541 4.04928 30.496 3.64727 30.3643 3.27012C30.2326 2.89297 30.0175 2.55039 29.735 2.26789M26.745 2.91889C26.9154 2.76466 27.116 2.64758 27.3341 2.5751C27.5522 2.50262 27.7829 2.47633 28.0117 2.4979C28.2406 2.51946 28.4624 2.58842 28.6631 2.70037C28.8638 2.81233 29.039 2.96483 29.1775 3.14818C29.3161 3.33153 29.415 3.54171 29.4679 3.76535C29.5208 3.98899 29.5266 4.2212 29.4848 4.4472C29.4431 4.67319 29.3548 4.88803 29.2255 5.07805C29.0963 5.26806 28.9289 5.42909 28.734 5.55089L22.95 9.16289L15.663 13.4929C15.6491 13.5035 15.6315 13.5081 15.6142 13.5058C15.5968 13.5035 15.5811 13.4943 15.5705 13.4804C15.5599 13.4665 15.5552 13.4489 15.5576 13.4316C15.5599 13.4142 15.5691 13.3985 15.583 13.3879L21.468 7.69789L26.745 2.91889ZM19.447 2.51889C19.6403 2.52812 19.8278 2.58819 19.9905 2.69303C20.1531 2.79788 20.2853 2.94379 20.3735 3.11604C20.4618 3.28829 20.503 3.48077 20.4931 3.67406C20.4832 3.86735 20.4224 4.05459 20.317 4.21689L15.582 11.5109C15.4581 11.4463 15.3313 11.3876 15.202 11.3349L18.37 3.21789C18.4536 3.00309 18.6025 2.81996 18.7957 2.69436C18.989 2.56876 19.2168 2.50703 19.447 2.51789"/>
</mask>
<path d="M26.075 2.17689L27.4176 3.65929L27.4178 3.6591L26.075 2.17689ZM20.785 6.96789L19.4424 5.48549L19.4183 5.50732L19.395 5.52991L20.785 6.96789ZM17.935 9.72289L16.2578 8.63346L19.325 11.1609L17.935 9.72289ZM21.158 4.76089L22.8352 5.85032L22.8355 5.85L21.158 4.76089ZM19.495 1.51889L19.59 -0.478854L19.5896 -0.478869L19.495 1.51889ZM17.439 2.85389L19.3022 3.58091L19.3024 3.58022L17.439 2.85389ZM14.237 11.0599L13.9085 13.0327L15.51 13.2994L16.1002 11.7869L14.237 11.0599ZM11 19.2419H13V18.1721L12.1101 17.5783L11 19.2419ZM8.958 27.8939L7.79019 26.2702L7.78991 26.2704L8.958 27.8939ZM9.542 28.7059L10.7105 30.329L10.7107 30.3289L9.542 28.7059ZM12 19.7439L12.6697 17.8593L10 16.9107V19.7439H12ZM13 19.9729H15V18.1851L13.2234 17.9854L13 19.9729ZM14 19.9729L13.7784 17.9852L12 18.1835V19.9729H14ZM15 19.7429H17V16.9107L14.331 17.8581L15 19.7429ZM17.452 28.4889L16.2588 30.094L16.2589 30.094L17.452 28.4889ZM21.458 29.9989L21.6259 28.006L21.6253 28.0059L21.458 29.9989ZM21.542 29.0019L21.7099 27.009L21.7095 27.0089L21.542 29.0019ZM18.048 27.6859L19.2418 26.0813L19.2399 26.0798L18.048 27.6859ZM16 19.2419L14.8897 17.5784L14 18.1722V19.2419H16ZM18 15.4999H16V15.501L18 15.4999ZM17.55 13.5349L16.5284 11.8155L14.9477 12.7547L15.7509 14.4086L17.55 13.5349ZM23.466 10.0199L24.4876 11.7393L24.495 11.7348L23.466 10.0199ZM23.476 10.0139L24.505 11.7288L24.5204 11.7196L24.5355 11.7102L23.476 10.0139ZM29.265 6.39789L30.3245 8.09417L30.3253 8.09367L29.265 6.39789ZM26.745 2.91889L25.4028 1.43616L25.4025 1.43646L26.745 2.91889ZM28.734 5.55089L29.7934 7.24728L29.794 7.2469L28.734 5.55089ZM22.95 9.16289L23.9717 10.8823L23.9906 10.871L24.0094 10.8593L22.95 9.16289ZM15.663 13.4929L14.6413 11.7735L14.5424 11.8323L14.4509 11.902L15.663 13.4929ZM15.583 13.3879L16.7951 14.9788L16.8886 14.9075L16.9732 14.8257L15.583 13.3879ZM21.468 7.69789L20.1255 6.21546L20.1013 6.23737L20.0778 6.26006L21.468 7.69789ZM20.317 4.21689L18.6398 3.12734L18.6395 3.1279L20.317 4.21689ZM15.582 11.5109L14.6578 13.2846L16.2698 14.1245L17.2595 12.5999L15.582 11.5109ZM15.202 11.3349L13.3389 10.6077L12.6226 12.4431L14.4469 13.1869L15.202 11.3349ZM18.37 3.21789L20.2331 3.94505L20.2339 3.94294L18.37 3.21789ZM31.15 0.852457C30.3049 0.00760233 29.1673 -0.479967 27.9726 -0.509335L27.8743 3.48946C28.0427 3.49359 28.2029 3.56229 28.322 3.68132L31.15 0.852457ZM27.9726 -0.509335C26.778 -0.538703 25.6178 -0.10762 24.7322 0.694686L27.4178 3.6591C27.5426 3.54606 27.706 3.48532 27.8743 3.48946L27.9726 -0.509335ZM24.7324 0.694489L19.4424 5.48549L22.1276 8.45029L27.4176 3.65929L24.7324 0.694489ZM19.395 5.52991L16.545 8.28491L19.325 11.1609L22.175 8.40587L19.395 5.52991ZM19.6122 10.8123L22.8352 5.85032L19.4808 3.67146L16.2578 8.63346L19.6122 10.8123ZM22.8355 5.85C24.5599 3.194 22.7507 -0.328622 19.59 -0.478854L19.4 3.51664C19.4208 3.51762 19.4321 3.52081 19.4369 3.52241C19.4421 3.52414 19.4462 3.52619 19.4502 3.52889C19.4592 3.53493 19.4737 3.54849 19.4856 3.57162C19.4975 3.59475 19.4999 3.61427 19.4996 3.62483C19.4994 3.62952 19.4988 3.63386 19.4972 3.63892C19.4957 3.64359 19.4918 3.65448 19.4806 3.67178L22.8355 5.85ZM19.5896 -0.478869C18.7319 -0.519506 17.883 -0.289797 17.1628 0.177849L19.3412 3.53267C19.3587 3.52126 19.3794 3.51566 19.4004 3.51665L19.5896 -0.478869ZM17.1628 0.177849C16.4426 0.645495 15.8874 1.32747 15.5756 2.12756L19.3024 3.58022C19.3101 3.56071 19.3236 3.54407 19.3412 3.53267L17.1628 0.177849ZM15.5758 2.12687L12.3738 10.3329L16.1002 11.7869L19.3022 3.58091L15.5758 2.12687ZM14.5655 9.08706C13.0991 8.84285 11.5932 9.10872 10.299 9.84034L12.2675 13.3224C12.7653 13.0411 13.3444 12.9388 13.9085 13.0327L14.5655 9.08706ZM10.299 9.84034C9.00482 10.572 8.00054 11.7251 7.45362 13.1075L11.1731 14.5791C11.3835 14.0474 11.7697 13.6038 12.2675 13.3224L10.299 9.84034ZM7.45362 13.1075C6.90671 14.49 6.8502 16.0181 7.29354 17.4371L11.1115 16.2443C10.941 15.6985 10.9628 15.1108 11.1731 14.5791L7.45362 13.1075ZM7.29354 17.4371C7.73687 18.8561 8.65325 20.0803 9.88987 20.9055L12.1101 17.5783C11.6345 17.2609 11.2821 16.7901 11.1115 16.2443L7.29354 17.4371ZM9 19.2419V23.4999H13V19.2419H9ZM9 23.4999C9 25.0859 8.39574 25.8347 7.79019 26.2702L10.1258 29.5175C11.7643 28.3391 13 26.3879 13 23.4999H9ZM7.78991 26.2704C7.05418 26.7998 6.09917 26.9999 5.5 26.9999V30.9999C6.74083 30.9999 8.56582 30.64 10.1261 29.5173L7.78991 26.2704ZM5.5 26.9999C4.83696 26.9999 4.20108 27.2633 3.73223 27.7321L6.56066 30.5605C6.27935 30.8419 5.89782 30.9999 5.5 30.9999V26.9999ZM3.73223 27.7321C3.26339 28.201 3 28.8368 3 29.4999H7C7 29.8977 6.84197 30.2792 6.56066 30.5605L3.73223 27.7321ZM3 29.4999C3 30.1629 3.26339 30.7988 3.73223 31.2677L6.56066 28.4392C6.84197 28.7205 7 29.1021 7 29.4999H3ZM3.73223 31.2677C4.20108 31.7365 4.83696 31.9999 5.5 31.9999V27.9999C5.89782 27.9999 6.27935 28.1579 6.56066 28.4392L3.73223 31.2677ZM5.5 31.9999C6.89983 31.9999 8.94438 31.6004 10.7105 30.329L8.37352 27.0827C7.43362 27.7593 6.26017 27.9999 5.5 27.9999V31.9999ZM10.7107 30.3289C12.6045 28.9652 14 26.7148 14 23.4999H10C10 25.4109 9.23748 26.4606 8.3733 27.0829L10.7107 30.3289ZM14 23.4999V19.7439H10V23.4999H14ZM11.3303 21.6284C11.7961 21.7939 12.281 21.9047 12.7766 21.9604L13.2234 17.9854C13.025 17.9631 12.8399 17.9198 12.6697 17.8593L11.3303 21.6284ZM11 19.9729V29.4999H15V19.9729H11ZM11 29.4999C11 30.1629 11.2634 30.7988 11.7322 31.2677L14.5607 28.4392C14.842 28.7205 15 29.1021 15 29.4999H11ZM11.7322 31.2677C12.2011 31.7365 12.837 31.9999 13.5 31.9999V27.9999C13.8978 27.9999 14.2794 28.1579 14.5607 28.4392L11.7322 31.2677ZM13.5 31.9999C14.163 31.9999 14.7989 31.7365 15.2678 31.2677L12.4393 28.4392C12.7206 28.1579 13.1022 27.9999 13.5 27.9999V31.9999ZM15.2678 31.2677C15.7366 30.7988 16 30.1629 16 29.4999H12C12 29.1021 12.158 28.7205 12.4393 28.4392L15.2678 31.2677ZM16 29.4999V19.9729H12V29.4999H16ZM14.2216 21.9606C14.7153 21.9055 15.2009 21.7938 15.669 21.6277L14.331 17.8581C14.1523 17.9215 13.9668 17.9642 13.7784 17.9852L14.2216 21.9606ZM13 19.7429V23.4999H17V19.7429H13ZM13 23.4999C13 26.5908 14.4594 28.7563 16.2588 30.094L18.6452 26.8838C17.7246 26.1995 17 25.165 17 23.4999H13ZM16.2589 30.094C17.9592 31.3578 19.9313 31.8778 21.2907 31.9919L21.6253 28.0059C20.8407 27.94 19.6248 27.612 18.6451 26.8837L16.2589 30.094ZM21.2901 31.9918C21.9509 32.0475 22.6067 31.8384 23.1133 31.4105L20.5323 28.3546C20.8362 28.098 21.2295 27.9726 21.6259 28.006L21.2901 31.9918ZM23.1133 31.4105C23.6199 30.9827 23.9358 30.3711 23.9914 29.7103L20.0056 29.3745C20.039 28.9781 20.2284 28.6113 20.5323 28.3546L23.1133 31.4105ZM23.9914 29.7103C24.0471 29.0495 23.838 28.3937 23.4101 27.8871L20.3542 30.4681C20.0976 30.1642 19.9722 29.7708 20.0056 29.3745L23.9914 29.7103ZM23.4101 27.8871C22.9823 27.3805 22.3707 27.0646 21.7099 27.009L21.3741 30.9948C20.9777 30.9614 20.6109 30.772 20.3542 30.4681L23.4101 27.8871ZM21.7095 27.0089C21.0676 26.955 20.0405 26.6755 19.2418 26.0813L16.8542 29.2905C18.3755 30.4223 20.1604 30.8928 21.3745 30.9949L21.7095 27.0089ZM19.2399 26.0798C18.5426 25.5624 18 24.8113 18 23.4999H14C14 26.2325 15.2734 28.1174 16.8561 29.292L19.2399 26.0798ZM18 23.4999V19.2419H14V23.4999H18ZM17.1103 20.9054C17.9998 20.3117 18.729 19.5076 19.2331 18.5644L15.7053 16.6789C15.5116 17.0413 15.2315 17.3503 14.8897 17.5784L17.1103 20.9054ZM19.2331 18.5644C19.7371 17.6212 20.0006 16.5682 20 15.4988L16 15.501C16.0002 15.9119 15.899 16.3165 15.7053 16.6789L19.2331 18.5644ZM20 15.4999C20 14.4856 19.7664 13.5205 19.349 12.6612L15.7509 14.4086C15.9096 14.7353 16 15.1041 16 15.4999H20ZM18.5716 15.2543L24.4876 11.7393L22.4444 8.30048L16.5284 11.8155L18.5716 15.2543ZM24.495 11.7348L24.505 11.7288L22.447 8.29893L22.437 8.30493L24.495 11.7348ZM24.5355 11.7102L30.3245 8.09417L28.2055 4.70161L22.4165 8.31761L24.5355 11.7102ZM30.3253 8.09367C30.9191 7.72238 31.4215 7.22192 31.7951 6.62955L28.4117 4.49583C28.3591 4.57929 28.2883 4.6498 28.2047 4.70211L30.3253 8.09367ZM31.7951 6.62955C32.1687 6.03719 32.4038 5.36819 32.483 4.67236L28.5086 4.22007C28.4975 4.31811 28.4644 4.41237 28.4117 4.49583L31.7951 6.62955ZM32.483 4.67236C32.5622 3.97653 32.4834 3.2718 32.2525 2.61065L28.4762 3.92959C28.5087 4.02274 28.5198 4.12203 28.5086 4.22007L32.483 4.67236ZM32.2525 2.61065C32.0215 1.94949 31.6444 1.34895 31.1493 0.853728L28.3207 3.68205C28.3905 3.75183 28.4436 3.83644 28.4762 3.92959L32.2525 2.61065ZM28.0872 4.40162C28.0518 4.43366 28.0101 4.45798 27.9648 4.47303L26.7033 0.677172C26.2218 0.837186 25.7789 1.09566 25.4028 1.43616L28.0872 4.40162ZM27.9648 4.47303C27.9195 4.48809 27.8716 4.49355 27.8241 4.48907L28.1994 0.506724C27.6943 0.459111 27.1848 0.517158 26.7033 0.677172L27.9648 4.47303ZM27.8241 4.48907C27.7765 4.48459 27.7305 4.47027 27.6888 4.44701L29.6374 0.953732C29.1943 0.706567 28.7046 0.554337 28.1994 0.506724L27.8241 4.48907ZM27.6888 4.44701C27.6471 4.42376 27.6107 4.39208 27.5819 4.35399L30.7731 1.94237C30.4673 1.53758 30.0805 1.2009 29.6374 0.953732L27.6888 4.44701ZM27.5819 4.35399C27.5531 4.31591 27.5326 4.27225 27.5216 4.22579L31.4141 3.30492C31.2973 2.81117 31.079 2.34715 30.7731 1.94237L27.5819 4.35399ZM27.5216 4.22579C27.5106 4.17932 27.5094 4.13109 27.5181 4.08415L31.4516 4.81025C31.5437 4.31131 31.531 3.79867 31.4141 3.30492L27.5216 4.22579ZM27.5181 4.08415C27.5267 4.0372 27.5451 3.99257 27.5719 3.9531L30.8792 6.203C31.1646 5.7835 31.3595 5.30919 31.4516 4.81025L27.5181 4.08415ZM27.5719 3.9531C27.5988 3.91363 27.6335 3.88018 27.674 3.85488L29.794 7.2469C30.2242 6.97801 30.5938 6.6225 30.8792 6.203L27.5719 3.9531ZM27.6746 3.8545L21.8906 7.4665L24.0094 10.8593L29.7934 7.24728L27.6746 3.8545ZM21.9283 7.44353L14.6413 11.7735L16.6847 15.2123L23.9717 10.8823L21.9283 7.44353ZM14.4509 11.902C14.8589 11.5912 15.3737 11.4551 15.882 11.5238L15.3463 15.4878C15.8893 15.5612 16.4392 15.4158 16.8751 15.0838L14.4509 11.902ZM15.882 11.5238C16.3903 11.5925 16.8505 11.8603 17.1614 12.2683L13.9796 14.6925C14.3117 15.1284 14.8034 15.4144 15.3463 15.4878L15.882 11.5238ZM17.1614 12.2683C17.4722 12.6763 17.6083 13.191 17.5396 13.6994L13.5756 13.1637C13.5022 13.7068 13.6476 14.2567 13.9796 14.6925L17.1614 12.2683ZM17.5396 13.6994C17.4709 14.2077 17.2031 14.6679 16.7951 14.9788L14.3709 11.797C13.9351 12.1291 13.649 12.6207 13.5756 13.1637L17.5396 13.6994ZM16.9732 14.8257L22.8582 9.13572L20.0778 6.26006L14.1928 11.9501L16.9732 14.8257ZM22.8105 9.18032L28.0875 4.40132L25.4025 1.43646L20.1255 6.21546L22.8105 9.18032ZM19.3517 4.51662C19.1935 4.50907 19.0401 4.45992 18.907 4.37414L21.0739 1.01193C20.6155 0.716455 20.0872 0.547168 19.5423 0.521165L19.3517 4.51662ZM18.907 4.37414C18.7739 4.28835 18.6658 4.16896 18.5936 4.02804L22.1535 2.20405C21.9048 1.71863 21.5324 1.30741 21.0739 1.01193L18.907 4.37414ZM18.5936 4.02804C18.5214 3.88711 18.4876 3.72963 18.4957 3.57148L22.4905 3.77664C22.5185 3.23192 22.4022 2.68947 22.1535 2.20405L18.5936 4.02804ZM18.4957 3.57148C18.5039 3.41333 18.5536 3.26013 18.6398 3.12734L21.9942 5.30644C22.2913 4.84905 22.4625 4.32136 22.4905 3.77664L18.4957 3.57148ZM18.6395 3.1279L13.9045 10.4219L17.2595 12.5999L21.9945 5.30588L18.6395 3.1279ZM16.5062 9.73722C16.3272 9.64396 16.144 9.55909 15.9571 9.4829L14.4469 13.1869C14.5187 13.2161 14.5891 13.2487 14.6578 13.2846L16.5062 9.73722ZM17.0651 12.0621L20.2331 3.94505L16.5069 2.49073L13.3389 10.6077L17.0651 12.0621ZM20.2339 3.94294C20.1656 4.11868 20.0438 4.26852 19.8856 4.37128L17.7058 1.01744C17.1612 1.37141 16.7415 1.8875 16.5061 2.49284L20.2339 3.94294ZM19.8856 4.37128C19.7275 4.47405 19.5411 4.52455 19.3528 4.51567L19.5412 0.520112C18.8924 0.489508 18.2504 0.663471 17.7058 1.01744L19.8856 4.37128Z" fill="#322153" mask="url(#path-1-inside-1_11067_191)"/>
<path d="M21.2726 15.2101L21.2724 15.2098C21.0122 14.6874 20.6064 14.2514 20.1039 13.9545C19.82 13.7867 19.512 13.6674 19.1926 13.5997C19.3962 14.2108 19.5005 14.8525 19.5 15.5004M21.2726 15.2101L19 15.4999M21.2726 15.2101L27.4485 27.59M21.2726 15.2101L18.983 13.0587C19.4667 13.1165 19.9353 13.2741 20.3583 13.524C20.9438 13.87 21.4168 14.3781 21.72 14.9869L27.896 27.3669M19.5 15.5004L19 15.4999M19.5 15.5004C19.5 15.5001 19.5 15.4998 19.5 15.4995L19 15.4999M19.5 15.5004C19.5007 16.4115 19.2936 17.3107 18.8944 18.1297C18.5793 18.7761 18.1512 19.3591 17.6316 19.8517M19 15.4999C19.0008 16.3353 18.8109 17.1598 18.445 17.9106C18.1525 18.5105 17.7538 19.0508 17.2695 19.5059L17.6316 19.8517M17.6316 19.8517C17.5103 19.9667 17.3841 20.0768 17.2531 20.1817L26.136 28.6649C26.3249 28.8454 26.5714 28.9534 26.8322 28.97C27.0929 28.9865 27.3511 28.9106 27.5614 28.7555C27.7717 28.6004 27.9205 28.3762 27.9817 28.1222C28.0429 27.8682 28.0125 27.6008 27.896 27.3669M17.6316 19.8517L26.4813 28.3033C26.5851 28.4025 26.7206 28.4619 26.8639 28.471C27.0072 28.4801 27.1491 28.4383 27.2646 28.3531C27.3802 28.2679 27.462 28.1447 27.4956 28.0051C27.5292 27.8655 27.5126 27.7185 27.4485 27.59M27.4485 27.59L27.4486 27.5901L27.896 27.3669M27.4485 27.59L27.896 27.3669M8.01522 20.5C8.11772 20.4472 8.21242 20.3785 8.29546 20.2954C8.50644 20.0845 8.62497 19.7983 8.62497 19.4999C8.62497 19.2016 8.50644 18.9154 8.29546 18.7044C8.08449 18.4935 7.79834 18.3749 7.49997 18.3749C7.2016 18.3749 6.91545 18.4935 6.70447 18.7044C6.62177 18.7872 6.55327 18.8814 6.50055 18.9834C6.50058 18.981 6.50061 18.9785 6.50065 18.9761C6.5063 18.6235 6.63599 18.2841 6.86695 18.0177C7.09792 17.7512 7.41538 17.5746 7.7636 17.5189C8.11182 17.4632 8.46853 17.532 8.77108 17.7132C9.07362 17.8943 9.30267 18.1763 9.41799 18.5096C9.53331 18.8428 9.52753 19.206 9.40166 19.5355C9.2758 19.8649 9.0379 20.1394 8.72974 20.3109C8.5097 20.4333 8.26388 20.4976 8.01522 20.5ZM6.90848 20.4569C7.01503 20.5228 7.13189 20.5704 7.25417 20.5978L7.18603 20.7191L4.47891 25.5389L6.89907 20.4766L6.90848 20.4569Z" fill="#2E8B57" stroke="#322153"/>
</svg>
