<svg width="64" height="64" viewBox="0 0 64 64" fill="none" xmlns="http://www.w3.org/2000/svg">
<mask id="path-1-inside-1_11092_155" fill="white">
<path d="M62.2562 1.74553C61.1741 0.663723 59.7174 0.0394074 58.1878 0.00180259C56.6581 -0.0358022 55.1725 0.516183 54.0385 1.54351L42.1642 12.2977L35.7669 18.4818L43.0015 7.34374C44.9835 4.29099 42.9049 0.239355 39.2686 0.0665158C38.2824 0.019795 37.3064 0.283894 36.4784 0.821551C35.6504 1.35921 35.0121 2.14328 34.6535 3.06315L27.4661 21.4829C25.1872 21.1034 22.847 21.5166 20.8359 22.6535C18.8247 23.7905 17.2641 25.5825 16.4141 27.7308C15.5642 29.879 15.4764 32.2537 16.1654 34.4589C16.8543 36.6641 18.2784 38.5665 20.2001 39.8488V49.4066C20.2001 54.428 18.135 57.4583 15.6165 59.2697C13.0396 61.1238 9.91949 61.7523 7.85439 61.7523C7.55673 61.7523 7.27126 61.8706 7.06078 62.081C6.8503 62.2915 6.73206 62.577 6.73206 62.8747C6.73206 63.1723 6.8503 63.4578 7.06078 63.6683C7.27126 63.8787 7.55673 63.997 7.85439 63.997C10.2786 63.997 13.8903 63.2787 16.9274 61.0924C20.0228 58.8634 22.4448 55.1597 22.4448 49.4066V40.9756C23.1586 41.2293 23.9105 41.4021 24.6894 41.4897V62.8747C24.6894 63.1723 24.8077 63.4578 25.0181 63.6683C25.2286 63.8787 25.5141 63.997 25.8118 63.997C26.1094 63.997 26.3949 63.8787 26.6054 63.6683C26.8159 63.4578 26.9341 63.1723 26.9341 62.8747V41.4897C27.6997 41.4043 28.4528 41.2311 29.1788 40.9734V49.4066C29.1788 54.7445 31.6299 58.3359 34.6827 60.6053C37.6906 62.841 41.2686 63.7927 43.6749 63.9947C43.9716 64.0197 44.2662 63.9258 44.4937 63.7337C44.7212 63.5415 44.8631 63.2668 44.8881 62.9701C44.9131 62.6733 44.8192 62.3787 44.627 62.1512C44.4349 61.9237 44.1602 61.7818 43.8634 61.7568C41.7803 61.5817 38.6243 60.74 36.0205 58.8028C33.4616 56.9038 31.4234 53.9454 31.4234 49.4066V39.8488C32.8053 38.9265 33.9381 37.6772 34.7213 36.2119C35.5044 34.7467 35.9137 33.1107 35.9128 31.4493C35.9128 29.8668 35.5491 28.3696 34.9027 27.0385L48.1822 19.1485L48.2046 19.135L61.199 11.0183C61.9593 10.5428 62.6026 9.90202 63.081 9.14352C63.5593 8.38502 63.8604 7.52839 63.9618 6.6374C64.0632 5.74641 63.9623 4.84403 63.6666 3.99745C63.3709 3.15086 62.8881 2.38189 62.254 1.74777M55.5424 3.20905C55.9249 2.86286 56.3752 2.60006 56.8647 2.43737C57.3542 2.27467 57.8723 2.21566 58.3859 2.26407C58.8994 2.31248 59.3973 2.46725 59.8478 2.71855C60.2984 2.96985 60.6916 3.31217 61.0026 3.72373C61.3137 4.13529 61.5356 4.60708 61.6544 5.10908C61.7731 5.61108 61.7861 6.13231 61.6925 6.6396C61.5988 7.14689 61.4006 7.62913 61.1104 8.05565C60.8203 8.48217 60.4445 8.84363 60.0071 9.11703L47.0239 17.2248L30.667 26.9442C30.6357 26.968 30.5963 26.9784 30.5574 26.9732C30.5184 26.9679 30.4832 26.9474 30.4594 26.9161C30.4355 26.8849 30.4251 26.8455 30.4304 26.8065C30.4356 26.7676 30.4562 26.7323 30.4874 26.7085L43.6973 13.9363L55.5424 3.20905ZM39.1608 2.31119C39.5948 2.3319 40.0156 2.46673 40.3807 2.70208C40.7459 2.93743 41.0425 3.26496 41.2406 3.6516C41.4387 4.03824 41.5313 4.4703 41.509 4.90416C41.4867 5.33802 41.3504 5.75833 41.1137 6.12264L30.4852 22.4953C30.2071 22.3504 29.9225 22.2186 29.6322 22.1002L36.7433 3.88021C36.9309 3.39806 37.2651 2.98699 37.6989 2.70506C38.1327 2.42313 38.644 2.28457 39.1608 2.30894"/>
</mask>
<path d="M54.0385 1.54351L56.0524 3.76711L56.0527 3.76682L54.0385 1.54351ZM42.1642 12.2977L40.1503 10.0741L40.1142 10.1069L40.0791 10.1408L42.1642 12.2977ZM35.7669 18.4818L33.251 16.8476L37.8519 20.6388L35.7669 18.4818ZM43.0015 7.34374L45.5173 8.97789L45.5176 8.9774L43.0015 7.34374ZM39.2686 0.0665158L39.411 -2.9301L39.4105 -2.93012L39.2686 0.0665158ZM34.6535 3.06315L37.4483 4.15368L37.4487 4.15265L34.6535 3.06315ZM27.4661 21.4829L26.9733 24.4422L29.3756 24.8422L30.2609 22.5734L27.4661 21.4829ZM20.2001 39.8488H23.2001V38.2441L21.8653 37.3534L20.2001 39.8488ZM15.6165 59.2697L13.8648 56.8342L13.8643 56.8345L15.6165 59.2697ZM16.9274 61.0924L18.6801 63.5271L18.6804 63.5269L16.9274 61.0924ZM22.4448 40.9756L23.4493 38.1488L19.4448 36.7258V40.9756H22.4448ZM24.6894 41.4897H27.6894V38.808L25.0245 38.5084L24.6894 41.4897ZM26.9341 41.4897L26.6017 38.5081L23.9341 38.8056V41.4897H26.9341ZM29.1788 40.9734H32.1788V36.7251L28.1752 38.1462L29.1788 40.9734ZM34.6827 60.6053L32.8929 63.0129L32.8931 63.013L34.6827 60.6053ZM43.6749 63.9947L43.9267 61.0053L43.9258 61.0053L43.6749 63.9947ZM43.8634 61.7568L44.1153 58.7674L44.1147 58.7673L43.8634 61.7568ZM36.0205 58.8028L37.8112 56.3959L37.8083 56.3937L36.0205 58.8028ZM31.4234 39.8488L29.758 37.3536L28.4234 38.2443V39.8488H31.4234ZM35.9128 31.4493L32.9128 31.4493L32.9128 31.4509L35.9128 31.4493ZM34.9027 27.0385L33.3703 24.4594L30.9992 25.8682L32.2041 28.3491L34.9027 27.0385ZM48.1822 19.1485L49.7145 21.7276L49.7257 21.7209L48.1822 19.1485ZM48.2046 19.135L49.7482 21.7074L49.7712 21.6936L49.7939 21.6794L48.2046 19.135ZM61.199 11.0183L62.7883 13.5627L62.7895 13.5619L61.199 11.0183ZM55.5424 3.20905L53.5291 0.98496L53.5286 0.985406L55.5424 3.20905ZM60.0071 9.11703L61.5961 11.6616L61.597 11.6611L60.0071 9.11703ZM47.0239 17.2248L48.5564 19.8038L48.5849 19.7869L48.613 19.7694L47.0239 17.2248ZM30.667 26.9442L29.1345 24.3652L28.9861 24.4533L28.8489 24.5579L30.667 26.9442ZM30.4874 26.7085L32.3055 29.0948L32.4459 28.9879L32.5727 28.8653L30.4874 26.7085ZM43.6973 13.9363L41.6835 11.7127L41.6472 11.7456L41.612 11.7796L43.6973 13.9363ZM41.1137 6.12264L38.5979 4.48832L38.5974 4.48915L41.1137 6.12264ZM30.4852 22.4953L29.0989 25.1558L31.5169 26.4157L33.0015 24.1288L30.4852 22.4953ZM29.6322 22.1002L26.8375 21.0095L25.763 23.7625L28.4996 24.8782L29.6322 22.1002ZM36.7433 3.88021L39.538 4.97096L39.5392 4.96779L36.7433 3.88021ZM64.3772 -0.376122C62.7506 -2.00229 60.5609 -2.94076 58.2615 -2.99729L58.114 3.0009C58.874 3.01958 59.5976 3.32974 60.1353 3.86718L64.3772 -0.376122ZM58.2615 -2.99729C55.9621 -3.05382 53.7289 -2.22407 52.0243 -0.679798L56.0527 3.76682C56.616 3.25644 57.3541 2.98221 58.114 3.0009L58.2615 -2.99729ZM52.0246 -0.680092L40.1503 10.0741L44.178 14.5213L56.0524 3.76711L52.0246 -0.680092ZM40.0791 10.1408L33.6818 16.3248L37.8519 20.6388L44.2493 14.4547L40.0791 10.1408ZM38.2827 20.1159L45.5173 8.97789L40.4856 5.70959L33.251 16.8476L38.2827 20.1159ZM45.5176 8.9774C48.7618 3.98065 45.3585 -2.64741 39.411 -2.9301L39.1261 3.06313C40.4514 3.12612 41.2052 4.60132 40.4853 5.71007L45.5176 8.9774ZM39.4105 -2.93012C37.7967 -3.00658 36.1997 -2.5744 34.8447 -1.69456L38.1122 3.33766C38.4132 3.14219 38.7681 3.04617 39.1266 3.06315L39.4105 -2.93012ZM34.8447 -1.69456C33.4896 -0.814727 32.4451 0.468354 31.8583 1.97366L37.4487 4.15265C37.579 3.81821 37.8111 3.53314 38.1122 3.33766L34.8447 -1.69456ZM31.8587 1.97263L24.6713 20.3924L30.2609 22.5734L37.4483 4.15368L31.8587 1.97263ZM27.9589 18.5237C25.0031 18.0315 21.968 18.5673 19.3595 20.0419L22.3122 25.2651C23.7261 24.4658 25.3712 24.1754 26.9733 24.4422L27.9589 18.5237ZM19.3595 20.0419C16.751 21.5166 14.7269 23.8408 13.6245 26.6271L19.2038 28.8344C19.8013 27.3242 20.8984 26.0644 22.3122 25.2651L19.3595 20.0419ZM13.6245 26.6271C12.5222 29.4134 12.4083 32.4934 13.3019 35.3535L19.0289 33.5643C18.5446 32.0141 18.6063 30.3446 19.2038 28.8344L13.6245 26.6271ZM13.3019 35.3535C14.1954 38.2136 16.0424 40.681 18.5349 42.3442L21.8653 37.3534C20.5143 36.4519 19.5132 35.1145 19.0289 33.5643L13.3019 35.3535ZM17.2001 39.8488V49.4066H23.2001V39.8488H17.2001ZM17.2001 49.4066C17.2001 53.4515 15.6086 55.58 13.8648 56.8342L17.3682 61.7052C20.6614 59.3365 23.2001 55.4044 23.2001 49.4066H17.2001ZM13.8643 56.8345C11.9058 58.2437 9.43824 58.7523 7.85439 58.7523V64.7523C10.4007 64.7523 14.1733 64.0039 17.3686 61.7049L13.8643 56.8345ZM7.85439 58.7523C6.76109 58.7523 5.71255 59.1866 4.93946 59.9597L9.1821 64.2024C8.82997 64.5545 8.35237 64.7523 7.85439 64.7523V58.7523ZM4.93946 59.9597C4.16637 60.7328 3.73206 61.7813 3.73206 62.8747H9.73206C9.73206 63.3726 9.53423 63.8502 9.1821 64.2024L4.93946 59.9597ZM3.73206 62.8747C3.73206 63.968 4.16637 65.0165 4.93946 65.7896L9.1821 61.5469C9.53423 61.8991 9.73206 62.3767 9.73206 62.8747H3.73206ZM4.93946 65.7896C5.71255 66.5627 6.76109 66.997 7.85439 66.997V60.997C8.35237 60.997 8.82997 61.1948 9.1821 61.5469L4.93946 65.7896ZM7.85439 66.997C10.7584 66.997 15.0234 66.1595 18.6801 63.5271L15.1746 58.6576C12.7572 60.3979 9.7989 60.997 7.85439 60.997V66.997ZM18.6804 63.5269C22.548 60.7419 25.4448 56.1376 25.4448 49.4066H19.4448C19.4448 54.1818 17.4975 56.985 15.1743 58.6579L18.6804 63.5269ZM25.4448 49.4066V40.9756H19.4448V49.4066H25.4448ZM21.4403 43.8025C22.3757 44.1349 23.3526 44.3583 24.3544 44.4709L25.0245 38.5084C24.4685 38.4459 23.9415 38.3237 23.4493 38.1488L21.4403 43.8025ZM21.6894 41.4897V62.8747H27.6894V41.4897H21.6894ZM21.6894 62.8747C21.6894 63.968 22.1237 65.0165 22.8968 65.7896L27.1395 61.5469C27.4916 61.8991 27.6894 62.3767 27.6894 62.8747H21.6894ZM22.8968 65.7896C23.6699 66.5627 24.7185 66.997 25.8118 66.997V60.997C26.3097 60.997 26.7873 61.1948 27.1395 61.5469L22.8968 65.7896ZM25.8118 66.997C26.9051 66.997 27.9536 66.5627 28.7267 65.7896L24.4841 61.5469C24.8362 61.1948 25.3138 60.997 25.8118 60.997V66.997ZM28.7267 65.7896C29.4998 65.0165 29.9341 63.968 29.9341 62.8747H23.9341C23.9341 62.3767 24.1319 61.8991 24.4841 61.5469L28.7267 65.7896ZM29.9341 62.8747V41.4897H23.9341V62.8747H29.9341ZM27.2665 44.4712C28.261 44.3603 29.2394 44.1353 30.1823 43.8006L28.1752 38.1462C27.6663 38.3269 27.1383 38.4483 26.6017 38.5081L27.2665 44.4712ZM26.1788 40.9734V49.4066H32.1788V40.9734H26.1788ZM26.1788 49.4066C26.1788 55.8138 29.181 60.2536 32.8929 63.0129L36.4725 58.1977C34.0789 56.4183 32.1788 53.6751 32.1788 49.4066H26.1788ZM32.8931 63.013C36.4413 65.6504 40.5865 66.746 43.4239 66.9842L43.9258 61.0053C41.9506 60.8394 38.9398 60.0316 36.4723 58.1976L32.8931 63.013ZM43.423 66.9842C44.5126 67.076 45.5941 66.7311 46.4294 66.0256L42.558 61.4417C42.9383 61.1205 43.4306 60.9635 43.9267 61.0053L43.423 66.9842ZM46.4294 66.0256C47.2648 65.3201 47.7857 64.3115 47.8775 63.2219L41.8987 62.7182C41.9405 62.2221 42.1776 61.7629 42.558 61.4417L46.4294 66.0256ZM47.8775 63.2219C47.9693 62.1323 47.6245 61.0508 46.9189 60.2155L42.3351 64.0869C42.0139 63.7066 41.8569 63.2143 41.8987 62.7182L47.8775 63.2219ZM46.9189 60.2155C46.2134 59.3801 45.2049 58.8592 44.1153 58.7674L43.6115 64.7462C43.1155 64.7044 42.6563 64.4673 42.3351 64.0869L46.9189 60.2155ZM44.1147 58.7673C42.4607 58.6283 39.8731 57.9298 37.8112 56.3959L34.2298 61.2098C37.3756 63.5501 41.1 64.5351 43.6121 64.7463L44.1147 58.7673ZM37.8083 56.3937C35.9135 54.9876 34.4234 52.8795 34.4234 49.4066H28.4234C28.4234 55.0112 31.0097 58.8201 34.2327 61.2119L37.8083 56.3937ZM34.4234 49.4066V39.8488H28.4234V49.4066H34.4234ZM33.0889 42.3441C34.8816 41.1475 36.3511 39.5269 37.3671 37.626L32.0755 34.7978C31.5251 35.8275 30.7291 36.7054 29.758 37.3536L33.0889 42.3441ZM37.3671 37.626C38.383 35.7252 38.914 33.6029 38.9128 31.4476L32.9128 31.4509C32.9134 32.6185 32.6258 33.7681 32.0755 34.7978L37.3671 37.626ZM38.9128 31.4493C38.9128 29.4029 38.4417 27.4585 37.6013 25.7279L32.2041 28.3491C32.6565 29.2807 32.9128 30.3306 32.9128 31.4493H38.9128ZM36.4351 29.6176L49.7145 21.7276L46.6498 16.5694L33.3703 24.4594L36.4351 29.6176ZM49.7257 21.7209L49.7482 21.7074L46.661 16.5626L46.6386 16.576L49.7257 21.7209ZM49.7939 21.6794L62.7883 13.5627L59.6097 8.47385L46.6153 16.5906L49.7939 21.6794ZM62.7895 13.5619C63.9325 12.8473 64.8994 11.884 65.6185 10.7438L60.5434 7.54322C60.3058 7.92005 59.9862 8.2384 59.6085 8.4746L62.7895 13.5619ZM65.6185 10.7438C66.3376 9.60364 66.7901 8.31594 66.9426 6.97661L60.981 6.29818C60.9307 6.74083 60.7811 7.1664 60.5434 7.54322L65.6185 10.7438ZM66.9426 6.97661C67.095 5.63729 66.9433 4.28083 66.4988 3.00824L60.8344 4.98666C60.9813 5.40724 61.0314 5.85554 60.981 6.29818L66.9426 6.97661ZM66.4988 3.00824C66.0543 1.73565 65.3285 0.579727 64.3754 -0.37347L60.1326 3.86902C60.4476 4.18404 60.6875 4.56607 60.8344 4.98666L66.4988 3.00824ZM57.5557 5.43315C57.6295 5.36636 57.7164 5.31565 57.8109 5.28426L55.9186 -0.409531C55.034 -0.115537 54.2202 0.359364 53.5291 0.98496L57.5557 5.43315ZM57.8109 5.28426C57.9053 5.25287 58.0052 5.24149 58.1043 5.25083L58.6674 -0.722695C57.7393 -0.810175 56.8032 -0.703525 55.9186 -0.409531L57.8109 5.28426ZM58.1043 5.25083C58.2034 5.26017 58.2995 5.29003 58.3864 5.33851L61.3093 0.0985931C60.4952 -0.355523 59.5955 -0.635215 58.6674 -0.722695L58.1043 5.25083ZM58.3864 5.33851C58.4733 5.387 58.5492 5.45304 58.6092 5.53245L63.3961 1.91501C62.8341 1.1713 62.1234 0.552709 61.3093 0.0985931L58.3864 5.33851ZM58.6092 5.53245C58.6692 5.61186 58.712 5.70288 58.7349 5.79973L64.5738 4.41843C64.3592 3.51127 63.9581 2.65872 63.3961 1.91501L58.6092 5.53245ZM58.7349 5.79973C58.7579 5.89658 58.7604 5.99714 58.7423 6.09502L64.6426 7.18418C64.8118 6.26748 64.7884 5.32559 64.5738 4.41843L58.7349 5.79973ZM58.7423 6.09502C58.7242 6.19289 58.686 6.28594 58.63 6.36823L63.5909 9.74308C64.1152 8.97233 64.4734 8.10089 64.6426 7.18418L58.7423 6.09502ZM58.63 6.36823C58.574 6.45052 58.5015 6.52026 58.4171 6.57301L61.597 11.6611C62.3875 11.167 63.0666 10.5138 63.5909 9.74308L58.63 6.36823ZM58.418 6.57244L45.4349 14.6802L48.613 19.7694L61.5961 11.6616L58.418 6.57244ZM45.4914 14.6457L29.1345 24.3652L32.1995 29.5232L48.5564 19.8038L45.4914 14.6457ZM28.8489 24.5579C29.4505 24.0995 30.2096 23.8989 30.9591 24.0002L30.1556 29.9462C30.983 30.058 31.8209 29.8365 32.4851 29.3305L28.8489 24.5579ZM30.9591 24.0002C31.7086 24.1015 32.3872 24.4963 32.8456 25.098L28.0731 28.7343C28.5791 29.3985 29.3282 29.8343 30.1556 29.9462L30.9591 24.0002ZM32.8456 25.098C33.304 25.6996 33.5047 26.4586 33.4034 27.2083L27.4574 26.4048C27.3456 27.2323 27.5671 28.0702 28.0731 28.7343L32.8456 25.098ZM33.4034 27.2083C33.3021 27.9578 32.9072 28.6364 32.3055 29.0948L28.6693 24.3222C28.0051 24.8282 27.5692 25.5774 27.4574 26.4048L33.4034 27.2083ZM32.5727 28.8653L45.7826 16.0931L41.612 11.7796L28.4021 24.5518L32.5727 28.8653ZM45.7111 16.16L57.5562 5.4327L53.5286 0.985406L41.6835 11.7127L45.7111 16.16ZM39.0178 5.30778C38.9245 5.30332 38.834 5.27433 38.7555 5.22373L42.0059 0.180431C41.1971 -0.340864 40.265 -0.639527 39.3038 -0.685402L39.0178 5.30778ZM38.7555 5.22373C38.677 5.17313 38.6132 5.10271 38.5706 5.01959L43.9105 2.2836C43.4717 1.4272 42.8148 0.701728 42.0059 0.180431L38.7555 5.22373ZM38.5706 5.01959C38.5281 4.93647 38.5082 4.84358 38.5129 4.75029L44.505 5.05803C44.5544 4.09702 44.3493 3.14 43.9105 2.2836L38.5706 5.01959ZM38.5129 4.75029C38.5177 4.657 38.5471 4.56664 38.5979 4.48832L43.6294 7.75696C44.1536 6.95002 44.4557 6.01905 44.505 5.05803L38.5129 4.75029ZM38.5974 4.48915L27.9689 20.8618L33.0015 24.1288L43.63 7.75612L38.5974 4.48915ZM31.8714 19.8348C31.5107 19.6468 31.1414 19.4758 30.7648 19.3222L28.4996 24.8782C28.7036 24.9614 28.9035 25.054 29.0989 25.1558L31.8714 19.8348ZM32.4269 23.1909L39.538 4.97096L33.9486 2.78947L26.8375 21.0095L32.4269 23.1909ZM39.5392 4.96779C39.4989 5.07144 39.427 5.15982 39.3338 5.22045L36.064 0.189676C35.1032 0.814165 34.3628 1.72467 33.9474 2.79263L39.5392 4.96779ZM39.3338 5.22045C39.2405 5.28106 39.1306 5.31085 39.0195 5.30561L39.3022 -0.687727C38.1575 -0.741719 37.0248 -0.434807 36.064 0.189676L39.3338 5.22045Z" fill="#322153" mask="url(#path-1-inside-1_11092_155)"/>
<path d="M38.4074 31.4493C38.4092 33.3623 37.9745 35.2505 37.1363 36.9701C36.3403 38.6031 35.2004 40.0432 33.7962 41.1922L54.3481 60.8196C54.7296 61.184 55.2275 61.4021 55.754 61.4356C56.2806 61.469 56.802 61.3157 57.2267 61.0025C57.6513 60.6894 57.9518 60.2365 58.0754 59.7235C58.199 59.2106 58.1377 58.6705 57.9023 58.1984L44.0392 30.4094L44.0391 30.4093C43.38 29.0858 42.3521 27.9814 41.0792 27.2293C39.9168 26.5424 38.5955 26.1761 37.2498 26.1642C38.0133 27.8198 38.4089 29.623 38.4074 31.4493ZM38.4074 31.4493C38.4074 31.4494 38.4074 31.4494 38.4074 31.4495L38.1574 31.4493L38.4074 31.4491C38.4074 31.4491 38.4074 31.4492 38.4074 31.4493ZM12.6649 43.4687L12.4879 43.4346L12.3996 43.5918L1.2392 63.462C1.23884 63.4626 1.23848 63.4632 1.23812 63.4638C1.16916 63.5802 1.05837 63.6659 0.928324 63.7034C0.797595 63.7411 0.657384 63.7272 0.536606 63.6646C0.415827 63.6019 0.323692 63.4953 0.279201 63.3668C0.234959 63.2389 0.241185 63.099 0.296551 62.9756C0.296862 62.9749 0.297175 62.9742 0.297489 62.9735L10.2079 42.244L10.2761 42.1013L10.1764 41.9786C9.54805 41.2049 9.2124 40.2347 9.22835 39.2381C9.2443 38.2416 9.61083 37.2826 10.2636 36.5294C10.9163 35.7763 11.8136 35.2772 12.7977 35.1198C13.7819 34.9624 14.79 35.1568 15.6451 35.6689C16.5001 36.1809 17.1475 36.9778 17.4734 37.9197C17.7993 38.8615 17.783 39.8881 17.4273 40.8191C17.0715 41.7501 16.3992 42.526 15.5282 43.0106C14.6573 43.4951 13.6435 43.6573 12.6649 43.4687ZM13.5125 41.5968C13.8225 41.2868 13.9966 40.8664 13.9966 40.428C13.9966 39.9896 13.8225 39.5692 13.5125 39.2592C13.2025 38.9492 12.7821 38.7751 12.3437 38.7751C11.9053 38.7751 11.4849 38.9492 11.1749 39.2592C10.8649 39.5692 10.6908 39.9896 10.6908 40.428C10.6908 40.8664 10.8649 41.2868 11.1749 41.5968C11.4849 41.9068 11.9053 42.0809 12.3437 42.0809C12.7821 42.0809 13.2025 41.9068 13.5125 41.5968Z" fill="#34CB79" stroke="#322153" stroke-width="0.5"/>
</svg>
